<?xml version="1.0" standalone="no"?>
<!DOCTYPE svg PUBLIC "-//W3C//DTD SVG 20010904//EN"
 "http://www.w3.org/TR/2001/REC-SVG-20010904/DTD/svg10.dtd">
<svg version="1.0" xmlns="http://www.w3.org/2000/svg"
 width="512.000000pt" height="512.000000pt" viewBox="0 0 512.000000 512.000000"
 preserveAspectRatio="xMidYMid meet">
<metadata>
Created by potrace 1.14, written by Peter Selinger 2001-2017
</metadata>
<g transform="translate(0.000000,512.000000) scale(0.100000,-0.100000)"
fill="#000000" stroke="none">
<path d="M2505 4432 c-59 -55 -114 -105 -245 -222 -52 -47 -97 -87 -100 -90
-3 -3 -45 -41 -95 -85 -49 -44 -92 -82 -95 -85 -3 -3 -50 -45 -105 -95 -55
-49 -105 -94 -111 -100 -6 -5 -46 -41 -89 -80 -43 -38 -88 -79 -99 -90 -12
-11 -60 -54 -106 -95 -47 -41 -92 -82 -100 -90 -8 -8 -55 -51 -105 -95 -49
-44 -92 -82 -95 -85 -3 -3 -93 -84 -200 -180 -107 -96 -197 -177 -200 -180 -3
-3 -28 -25 -55 -50 -28 -25 -91 -82 -140 -127 -50 -44 -101 -90 -115 -102
l-25 -20 321 -1 320 0 0 -827 c-1 -456 1 -840 2 -854 l4 -27 528 0 528 0 4 32
c1 17 3 304 2 639 l0 607 50 1 c58 0 637 0 737 -1 l66 0 -1 -637 0 -638 532
-1 532 -2 1 32 c0 17 1 401 2 853 l0 823 318 2 317 3 -192 172 c-105 95 -207
186 -226 204 -19 17 -71 64 -115 104 -44 39 -132 118 -195 175 -63 56 -131
117 -150 134 -19 18 -109 99 -200 181 -91 81 -203 183 -250 225 -47 43 -157
142 -245 220 -88 79 -162 146 -165 149 -3 3 -45 42 -95 86 -49 44 -92 82 -95
85 -3 3 -43 39 -90 80 -47 41 -89 81 -93 88 -12 18 -18 16 -72 -36z"/>
</g>
</svg>
